HIERARCHY
ROOT hip
{
	OFFSET 0.000000 0.000000 0.000000 
	CHANNELS 6 Xposition Yposition Zposition Xrotation Zrotation Yrotation
	JOINT abdomen
	{
		OFFSET 0.000000 3.402643 0.000000 
		CHANNELS 3 Xrotation Zrotation Yrotation
		JOINT chest
		{
			OFFSET 0.000000 8.438565 -0.680529 
			CHANNELS 3 Xrotation Zrotation Yrotation
			JOINT neck
			{
				OFFSET 0.000000 10.207942 -0.272212 
				CHANNELS 3 Xrotation Zrotation Yrotation
				JOINT head
				{
					OFFSET 0.000000 3.130431 0.000000 
					CHANNELS 3 Xrotation Zrotation Yrotation
					End Site
					{
						OFFSET 0.000000 3.130435 0.000000 
					}
				}
			}
			JOINT lCollar
			{
				OFFSET 3.470700 6.669187 -0.816635 
				CHANNELS 3 Yrotation Zrotation Xrotation
				JOINT lShldr
				{
					OFFSET 3.198488 0.000000 0.000000 
					CHANNELS 3 Zrotation Yrotation Xrotation
					JOINT lForeArm
					{
						OFFSET 10.139888 0.000000 0.000000 
						CHANNELS 3 Yrotation Zrotation Xrotation
						JOINT lHand
						{
							OFFSET 8.370511 0.000000 0.000000 
							CHANNELS 3 Zrotation Yrotation Xrotation
							End Site
							{
								OFFSET 4.083176 0.000000 0.000000 
							}
						}
					}
				}
			}
			JOINT rCollar
			{
				OFFSET -3.470700 6.669187 -0.816635 
				CHANNELS 3 Yrotation Zrotation Xrotation
				JOINT rShldr
				{
					OFFSET -3.198488 0.000000 0.000000 
					CHANNELS 3 Zrotation Yrotation Xrotation
					JOINT rForeArm
					{
						OFFSET -10.139888 0.000000 0.000000 
						CHANNELS 3 Yrotation Zrotation Xrotation
						JOINT rHand
						{
							OFFSET -8.370511 0.000000 0.000000 
							CHANNELS 3 Zrotation Yrotation Xrotation
							End Site
							{
								OFFSET -4.083176 0.000000 0.000000 
							}
						}
					}
				}
			}
		}
	}
	JOINT lThigh
	{
		OFFSET 5.308129 -1.633274 1.361059 
		CHANNELS 3 Xrotation Zrotation Yrotation
		JOINT lShin
		{
			OFFSET -2.041588 -20.007561 0.000000 
			CHANNELS 3 Xrotation Zrotation Yrotation
			JOINT lFoot
			{
				OFFSET 0.000000 -19.190928 -1.224953 
				CHANNELS 3 Xrotation Yrotation Zrotation
				End Site
				{
					OFFSET 0.000000 -2.449906 4.627600 
				}
			}
		}
	}
	JOINT rThigh
	{
		OFFSET -5.308129 -1.633274 1.361059 
		CHANNELS 3 Xrotation Zrotation Yrotation
		JOINT rShin
		{
			OFFSET 2.041588 -20.007561 0.000000 
			CHANNELS 3 Xrotation Zrotation Yrotation
			JOINT rFoot
			{
				OFFSET 0.000000 -19.190928 -1.224953 
				CHANNELS 3 Xrotation Yrotation Zrotation
				End Site
				{
					OFFSET 0.000000 -2.449906 4.627600 
				}
			}
		}
	}
}
MOTION
Frames: 16
Frame Time: 0.016667
-8.777176 43.444122 18.381611 6.094510 0.903071 -4.327270 -21.039000 2.405060 -2.347350 15.818100 4.068130 -0.932475 6.081654 1.375522 -5.113242 10.062100 7.125850 1.555190 2.000000 -2.000000 0.000000 -93.659698 -12.419300 -132.862000 70.889198 -0.259610 0.129232 -179.917007 -179.895996 2.531450 -2.000000 2.000000 0.000000 81.218697 15.271900 -144.324997 -63.389198 0.276089 0.122240 -0.077080 0.063062 -160.065994 -7.360239 -4.549044 0.641335 26.568623 2.731447 2.041554 -16.291826 2.864770 1.085778 -28.650444 -2.405699 1.790154 43.422550 -2.000182 -3.196655 -15.594354 -6.518823 -2.450303 
-8.521348 43.449009 17.874741 6.250810 0.922220 -4.586350 -20.990200 2.375280 -2.259930 15.847500 4.068300 -0.891334 5.876008 1.352946 -5.210238 10.013500 7.165430 1.553170 2.000000 -2.000000 0.000000 -93.785301 -12.925800 -132.020996 70.293503 -0.260951 0.128760 -179.904999 -179.884003 1.486550 -2.000000 2.000000 0.000000 81.600098 15.350700 -144.705002 -62.783699 0.277377 0.121586 -0.076422 0.061500 -159.460999 -7.932346 -4.743119 0.930341 26.218559 2.698023 2.039696 -16.400452 2.813908 1.060905 -29.417475 -2.584958 2.142068 43.294922 -2.006897 -3.192588 -14.921366 -6.352967 -2.336058 
-8.276137 43.445282 17.390226 6.280290 1.019240 -4.975570 -20.921801 2.317340 -2.108520 15.867100 4.058680 -0.830559 5.585915 1.313124 -5.238347 9.905400 7.176760 1.540770 2.000000 -2.000000 0.000000 -93.872299 -13.227600 -131.425003 69.853996 -0.261937 0.128403 -179.912994 -179.891006 0.256066 -2.000000 2.000000 0.000000 81.951897 15.351000 -144.871002 -62.334499 0.278328 0.121092 -0.075801 0.059981 -158.875000 -8.392040 -4.981596 1.373799 25.871885 2.628825 2.030632 -16.363821 2.727232 1.055890 -30.016827 -2.785118 2.634743 43.185287 -2.023941 -3.162851 -14.774995 -6.195534 -2.274626 
-8.054775 43.441933 16.927505 6.212380 1.232950 -5.461320 -20.843800 2.241270 -1.866390 15.886700 4.058790 -0.731520 5.383099 1.272367 -5.295515 9.826960 7.197360 1.523200 2.000000 -2.000000 0.000000 -93.871498 -13.363600 -131.005005 69.600098 -0.262505 0.128193 -179.910004 -179.878006 -1.081820 -2.000000 2.000000 0.000000 82.293602 15.321600 -144.783005 -61.992699 0.279049 0.120711 -0.075617 0.059524 -158.699005 -8.739554 -5.329096 1.923493 25.692085 2.575131 2.060954 -16.282398 2.672288 1.056417 -30.499615 -2.987848 3.271795 43.302223 -2.042588 -3.176866 -15.522017 -5.867628 -2.256012 
-7.866484 43.445923 16.483095 6.066690 1.553750 -5.967490 -20.794600 2.129220 -1.581140 15.857000 4.107290 -0.610629 5.319407 1.201837 -5.371549 9.787880 7.217360 1.490960 2.000000 -2.000000 0.000000 -93.812500 -13.314500 -130.779999 69.453697 -0.262832 0.128070 -179.906998 -179.876007 -2.458770 -2.000000 2.000000 0.000000 82.634903 15.301400 -144.442001 -61.641102 0.279789 0.120315 -0.075557 0.059372 -158.639999 -9.109570 -5.770417 2.518524 25.657318 2.530857 2.062220 -16.080214 2.635661 1.041322 -30.753292 -3.200708 3.884855 43.526093 -2.054535 -3.166415 -17.022392 -5.404748 -2.257599 
-7.705773 43.457638 16.061152 5.882100 1.884560 -6.485350 -20.774401 2.008650 -1.262980 15.807900 4.136190 -0.479825 5.411612 1.141662 -5.428159 9.798010 7.236650 1.455070 2.000000 -2.000000 0.000000 -93.714798 -13.109400 -130.791000 69.307198 -0.263160 0.127947 -179.904999 -179.873001 -3.786890 -2.000000 2.000000 0.000000 83.014999 15.300400 -143.914001 -61.182201 0.280750 0.119791 -0.075255 0.068375 -158.347000 -9.476141 -6.161584 3.075992 25.684185 2.472039 2.098262 -15.779873 2.529981 1.007960 -30.875290 -3.319430 4.330084 44.095997 -2.027791 -3.200872 -18.848886 -5.061875 -2.322896 
-7.560070 43.474243 15.666733 5.706720 2.030910 -6.974610 -20.753901 1.897170 -0.948419 15.798700 4.038820 -0.345500 5.715042 1.097822 -5.583141 9.897330 7.293480 1.434260 2.000000 -2.000000 0.000000 -93.558899 -12.855800 -131.016006 69.102097 -0.263617 0.127774 -179.901993 -179.871002 -5.134560 -2.000000 2.000000 0.000000 83.473198 15.377400 -143.328003 -60.576698 0.282013 0.119088 -0.074790 0.067176 -157.888000 -9.818862 -6.353292 3.530517 25.815111 2.441543 2.108886 -15.551345 2.408186 0.968657 -30.804270 -3.226664 4.420274 44.980221 -1.982520 -3.248809 -20.553745 -5.073367 -2.438363 
-7.419647 43.492252 15.301071 5.579390 1.943880 -7.407580 -20.773001 1.844510 -0.699465 15.809700 3.834500 -0.220462 6.081197 1.112270 -5.740052 10.016500 7.359680 1.436680 2.000000 -2.000000 0.000000 -93.422897 -12.514800 -131.475006 68.838402 -0.264204 0.127548 -179.899002 -179.867996 -6.550570 -2.000000 2.000000 0.000000 83.941002 15.395700 -142.703003 -59.922401 0.283368 0.118313 -0.064742 0.056669 -157.604996 -10.294172 -6.290921 3.802479 26.259989 2.425037 2.155994 -15.472610 2.409698 0.956442 -30.517340 -2.916161 4.126448 46.023228 -1.901145 -3.316281 -21.888748 -5.370665 -2.678126 
-7.281483 43.504864 14.967763 5.451600 1.691540 -7.836420 -20.811899 1.839580 -0.490103 15.850300 3.562200 -0.106961 6.408356 1.138283 -5.838511 10.096100 7.407010 1.442030 2.000000 -2.000000 0.000000 -93.326302 -12.047100 -132.158997 68.516197 -0.264921 0.127269 -179.895996 -179.875000 -7.859180 -2.000000 2.000000 0.000000 84.418602 15.306800 -142.147003 -59.287601 0.284675 0.117547 -0.064714 0.056593 -157.576004 -10.754625 -6.123909 3.913044 26.752289 2.411802 2.173203 -15.342910 2.653231 1.041134 -30.085833 -2.451591 3.482100 47.349106 -1.832386 -3.389201 -22.878052 -5.783205 -2.898409 
-7.153574 43.509628 14.654003 5.323900 1.419630 -8.217130 -20.870300 1.849300 -0.297317 15.900300 3.328850 0.002924 6.821494 1.184015 -5.927988 10.214800 7.443980 1.451550 2.000000 -2.000000 0.000000 -93.268898 -11.491700 -132.912003 68.174400 -0.265679 0.126968 0.106136 -0.126299 171.154007 -2.000000 2.000000 0.000000 84.857300 15.100900 -141.716995 -58.701698 0.285873 0.116827 -0.064589 0.056260 -157.449005 -11.169126 -5.967253 3.880768 27.235678 2.400553 2.220110 -15.203939 3.036811 1.134041 -29.441820 -1.989200 2.689812 48.568501 -1.745029 -3.474129 -23.437565 -6.130412 -3.079341 
-7.044370 43.510269 14.353274 5.206250 1.215670 -8.560930 -20.948200 1.877070 -0.111964 15.930300 3.182980 0.104293 7.304068 1.209055 -6.055924 10.363500 7.499820 1.458670 2.000000 -2.000000 0.000000 -93.221100 -10.906900 -133.606003 67.871597 -0.266349 0.126697 0.107672 -0.127487 170.460999 -2.000000 2.000000 0.000000 85.237503 14.807300 -141.386002 -58.145000 0.287004 0.116131 -0.064058 0.054823 -156.901993 -11.555716 -5.854243 3.797939 27.660898 2.375295 2.255317 -15.066470 3.406417 1.240797 -28.687050 -1.601830 1.847017 49.777168 -1.666857 -3.551167 -23.746780 -6.316236 -3.152166 
-6.958241 43.510269 14.067261 5.098650 1.128330 -8.893300 -21.055201 1.911420 0.090938 15.950000 3.173330 0.203816 7.780114 1.205276 -6.173024 10.521900 7.545720 1.445480 2.000000 -2.000000 0.000000 -93.094803 -10.331600 -134.125000 67.686096 -0.266758 0.126530 0.109485 -0.128852 169.651001 -2.000000 2.000000 0.000000 85.549400 14.465000 -141.113007 -57.588402 0.288129 0.115424 -0.063190 0.052375 -155.973999 -11.933541 -5.809506 3.831466 28.093142 2.374094 2.276069 -15.019791 3.615934 1.286413 -27.928652 -1.289350 1.042676 51.071350 -1.593664 -3.577124 -23.935959 -6.268443 -3.102074 
-6.893028 43.510788 13.799671 5.020540 1.147920 -9.215390 -21.171499 1.927500 0.301083 16.008499 3.202790 0.321931 8.257102 1.180197 -6.348095 10.670900 7.611100 1.423720 2.000000 -2.000000 0.000000 -92.968597 -9.756220 -134.623993 67.617699 -0.266909 0.126468 0.111695 -0.130463 168.673996 -2.000000 2.000000 0.000000 85.861397 14.161800 -140.889008 -57.002499 0.289306 0.114669 -0.062362 0.049912 -155.046997 -12.244182 -5.825071 3.995946 28.280437 2.363388 2.279711 -14.890984 3.650847 1.288739 -27.036642 -1.052204 0.351577 52.094666 -1.519406 -3.676499 -23.951946 -5.974224 -2.947057 
-6.846982 43.511044 13.541630 4.981670 1.255010 -9.480270 -21.296801 1.907150 0.525042 16.066999 3.251730 0.419051 8.726829 1.124450 -6.571091 10.849600 7.685550 1.397600 2.000000 -2.000000 0.000000 -92.822701 -9.239430 -135.091995 67.598198 -0.266952 0.126450 0.113865 -0.131989 167.727005 -2.000000 2.000000 0.000000 86.202904 13.927200 -140.763000 -56.426300 0.290455 0.113914 -0.061843 0.048298 -154.440994 -12.546681 -5.844631 4.295346 28.391176 2.344146 2.312391 -14.793373 3.463785 1.239662 -26.080038 -0.905860 -0.355475 52.908180 -1.487018 -3.703259 -23.941330 -5.611155 -2.746603 
-6.813426 43.511044 13.291566 4.981920 1.381480 -9.654780 -21.441601 1.857110 0.697629 16.135401 3.271510 0.509319 9.110768 1.059980 -6.764520 10.978900 7.751090 1.365490 2.000000 -2.000000 0.000000 -92.696297 -8.712780 -135.503006 67.627502 -0.266888 0.126477 0.116173 -0.133554 166.731003 -2.000000 2.000000 0.000000 86.573799 13.692700 -140.705002 -55.869598 0.291558 0.113174 -0.061679 0.047776 -154.246002 -12.893444 -5.856477 4.609913 28.481268 2.323062 2.315311 -14.712090 3.146569 1.155053 -25.091625 -0.785491 -1.083461 53.536274 -1.448085 -3.732794 -23.943451 -5.295123 -2.588445 
-6.789183 43.514515 13.043972 5.060260 1.468860 -9.742790 -21.605900 1.793360 0.833715 16.194000 3.281500 0.560750 9.435689 1.005863 -6.938553 11.098100 7.797360 1.338420 2.000000 -2.000000 0.000000 -92.501099 -8.312560 -135.600998 67.617699 -0.266909 0.126468 0.118531 -0.135094 165.725006 -2.000000 2.000000 0.000000 86.974098 13.497400 -140.705002 -55.332500 0.292615 0.112450 -0.061835 0.048272 -154.431000 -13.253058 -5.809347 4.893623 28.445955 2.286510 2.336438 -14.571826 2.747670 1.036612 -24.068043 -0.601322 -1.797875 53.859814 -1.432659 -3.743624 -23.881197 -5.179026 -2.498906 
